<?xml version="1.0" ?><!DOCTYPE svg  PUBLIC '-//W3C//DTD SVG 1.1//EN'  'http://www.w3.org/Graphics/SVG/1.1/DTD/svg11.dtd'><svg enable-background="new 0 0 128 128" id="Слой_1" version="1.1" viewBox="0 0 128 128" xml:space="preserve" xmlns="http://www.w3.org/2000/svg" xmlns:xlink="http://www.w3.org/1999/xlink"><path d="M104,114H24c-11,0-20-9-20-20V34c0-11,9-20,20-20h80c11,0,20,9,20,20v60C124,105,115,114,104,114z" fill="#E3D34C"/><path d="M104,114H24c-11,0-20-9-20-20l0-28l29,20l31-36l29,22.5l31-25V94C124,105,115,114,104,114z" fill="#F37865"/><g><path d="M15,94V34c0-11,9-20,20-20H24C13,14,4,23,4,34v60c0,11,9,20,20,20h11C24,114,15,105,15,94z" fill="#FFFFFF"/></g><circle cx="33" cy="86" fill="#FFFFFF" r="7.5"/><circle cx="93" cy="72.5" fill="#FFFFFF" r="7.5"/><circle cx="64" cy="50" fill="#FFFFFF" r="7.5"/><path d="M104,12.5H24C12.1,12.5,2.5,22.1,2.5,34v32c0,0,0,0,0,0v28c0,11.9,9.6,21.5,21.5,21.5h80  c11.9,0,21.5-9.6,21.5-21.5V34C125.5,22.1,115.9,12.5,104,12.5z M5.5,94V68.9l19.4,13.3C24.3,83.4,24,84.6,24,86  c0,4.5,3.3,8.1,7.5,8.9v17.6H24C13.8,112.5,5.5,104.2,5.5,94z M99,72.5c0,3.3-2.7,6-6,6s-6-2.7-6-6s2.7-6,6-6S99,69.2,99,72.5z   M91.5,81.4v31.1h-26V58.9c2.2-0.4,4.2-1.6,5.6-3.3l14.3,12.3c-0.8,1.4-1.3,2.9-1.3,4.6C84,77,87.3,80.6,91.5,81.4z M64,56  c-3.3,0-6-2.7-6-6s2.7-6,6-6c3.3,0,6,2.7,6,6S67.3,56,64,56z M58.3,57c1.2,1,2.6,1.6,4.2,1.9v53.6h-28V94.9c4.2-0.7,7.5-4.4,7.5-8.9  c0-2.3-0.9-4.4-2.3-6L58.3,57z M39,86c0,3.3-2.7,6-6,6s-6-2.7-6-6s2.7-6,6-6S39,82.7,39,86z M104,112.5h-9.5V81.4  c4.2-0.7,7.5-4.4,7.5-8.9c0-1.6-0.4-3.1-1.2-4.4l21.6-17.4V94C122.5,104.2,114.2,112.5,104,112.5z M122.5,46.8L99,65.8  c-1.6-1.4-3.7-2.3-6-2.3c-2.2,0-4.2,0.8-5.7,2.1L72.5,52.9C72.8,52,73,51,73,50c0-5-4-9-9-9c-5,0-9,4-9,9c0,1.7,0.5,3.3,1.3,4.7  L37.4,78.2C36.1,77.4,34.6,77,33,77c-2.5,0-4.8,1.1-6.4,2.7L5.5,65.2V34c0-10.2,8.3-18.5,18.5-18.5h80c10.2,0,18.5,8.3,18.5,18.5  V46.8z" fill="#62355C"/></svg>