<?xml version="1.0" ?><svg viewBox="0 0 20.718 22.367" xmlns="http://www.w3.org/2000/svg"><g data-name="Layer 2" id="Layer_2"><g data-name="Layer 1" id="Layer_1-2"><path d="M18.39,15.029c.228,3.125.583,4.571-3.531,4.591a.724.724,0,0,0-.818.768v1.649a.34.34,0,0,1-.68,0V20.388a1.381,1.381,0,0,1,1.5-1.448c1.615,0,2.765-.342,2.862-.851a13.281,13.281,0,0,0-.035-3.233A.338.338,0,0,1,17.9,14.5a15.431,15.431,0,0,0,1.833-.871c.529-.326.257-.633.011-1a8.167,8.167,0,0,1-2.006-3.465c-.468-11.307-16.58-11.3-17.047,0-.179,3,2.125,5.563,3.343,8.01a15.945,15.945,0,0,1,.752,4.867.34.34,0,0,1-.68.007,15.69,15.69,0,0,0-.691-4.594c-1.3-2.509-3.594-5.192-3.4-8.29.5-12.185,17.852-12.217,18.406-.042a8.7,8.7,0,0,0,1.846,3.069C21.644,13.86,19.551,14.509,18.39,15.029Zm-8.834.114c-.02.286.123.926-.34.923s-.319-.636-.339-.923A6,6,0,0,1,3.231,9.5c-.286-.02-.926.123-.923-.34s.636-.319.923-.34A6,6,0,0,1,8.877,3.173c.02-.286-.123-.927.339-.924s.319.637.34.924A6,6,0,0,1,15.2,8.818c.286.02.927-.123.923.34s-.636.319-.923.34A6,6,0,0,1,9.556,15.143Zm-.679-.68c.043-.315-.176-1.11.339-1.115s.3.8.34,1.115A5.322,5.322,0,0,0,14.522,9.5c-.316-.044-1.111.175-1.116-.34s.8-.3,1.116-.34A5.322,5.322,0,0,0,9.556,3.853c-.044.315.175,1.11-.34,1.115s-.3-.8-.339-1.115A5.321,5.321,0,0,0,3.911,8.818c.315.044,1.11-.175,1.115.34s-.8.3-1.115.34A5.321,5.321,0,0,0,8.877,14.463Zm-2.266-5.3a2.605,2.605,0,0,1,5.21,0A2.605,2.605,0,0,1,6.611,9.158Zm4.53,0a1.925,1.925,0,0,0-3.85,0A1.925,1.925,0,0,0,11.141,9.158Z" id="target"/></g></g></svg>