<svg version="1.2" xmlns="http://www.w3.org/2000/svg" viewBox="0 0 455 512" width="228" height="256">
	<title>cpp_icon-svg</title>
	<style>
		.s0 { fill: #000000 } 
	</style>
	<path fill-rule="evenodd" class="s0" d="m455 147.4v217.2c-0.5 13.7-7.5 26-19.7 34.1l-188.1 108.6c-10.8 6.3-28.6 6.3-39.4 0l-188.1-108.6c-11.4-7.5-18.9-19.5-19.7-34.1v-217.2c0-12.5 8.9-27.9 19.7-34.1l188.1-108.6c10.8-6.3 28.6-6.3 39.4 0l188.1 108.6c11.4 7.7 19.2 20.9 19.7 34.1zm-96.2 184.5l-65.6-38c-43.8 70.1-140.5 35.8-141.5-37.9 3.5-80 101.9-103.4 141.5-37.9l65.6-38c-85.5-137.6-283.9-72.2-283 75.9 3.8 159.7 207.6 206.7 283 75.9zm20.4-84.3h-16.9v-16.9h-16.9v16.9h-16.8v16.8h16.8v16.9h16.9v-16.9h16.9zm63.1 0h-16.8v-16.8h-16.9v16.8h-16.8v16.9h16.8v16.8h16.9v-16.8h16.8z"/>
</svg>